<?xml version="1.0" encoding="UTF-8"?>
<svg xmlns="http://www.w3.org/2000/svg" viewBox="0 0 614 163">
  <defs>
    <style>
      .cls-1 {
        fill: #48c27b;
      }

      .cls-2 {
        fill: #409cff;
      }

      .cls-3 {
        font-family: Poppins-SemiBold, Poppins;
        font-size: 91.14px;
        font-weight: 600;
      }

      .cls-3, .cls-4 {
        fill: #0f3769;
      }
    </style>
  </defs>
  <g id="Layer_1" data-name="Layer 1">
    <text class="cls-3" transform="translate(193 112.71)"><tspan x="0" y="0">JustSplit</tspan></text>
  </g>
  <g id="Layer_2" data-name="Layer 2">
    <rect class="cls-4" x="0" width="164" height="163" rx="14.16" ry="14.16"/>
  </g>
  <g id="Layer_3" data-name="Layer 3">
    <rect class="cls-2" x="15.01" y="14.92" width="133.97" height="133.15" rx="26.84" ry="26.84"/>
    <path class="cls-1" d="M93.55,22.23v15.98c0,45.66-29.09,84.93-70.76,102.28-4.35-4.34-7.22-10.17-7.78-16.65-.08-.78-.11-1.57-.11-2.37V42c0-14.82,12.02-26.84,26.84-26.84h51.57c.17,2.33.24,4.69.24,7.07Z"/>
  </g>
  <g id="Layer_4_copy" data-name="Layer 4 copy">
    <path class="cls-4" d="M93.55,22.23v15.98c0,45.66-29.09,84.93-70.76,102.28-1.55.65-3.12,1.27-4.7,1.85-1.98-4.22-3.08-8.87-3.08-13.78V49.13c0-17.51,13.99-31.96,32.02-33.97,1.42-.16,2.86-.24,4.33-.24h41.93c.01.08.01.16.02.24.17,2.33.24,4.69.24,7.07Z"/>
    <path class="cls-1" d="M82,21.5v14.39c0,42.66-26.69,79.11-64.36,93.78-1.69-3.8-2.62-7.99-2.62-12.41V45.73c0-17.01,13.88-30.81,31-30.81h35.77c.15,2.17.22,4.36.22,6.58Z"/>
  </g>
</svg>