<?xml version="1.0" encoding="UTF-8"?>
<svg xmlns="http://www.w3.org/2000/svg" viewBox="0 0 1330.4 335.9">
  <defs>
    <style>
      .cls-1, .cls-2 {
        fill: #009f16;
      }

      .cls-2 {
        stroke: #009f16;
        stroke-miterlimit: 10;
      }

      .cls-3, .cls-4 {
        fill: #006241;
      }

      .cls-4 {
        font-family: Poppins-Bold, Poppins;
        font-size: 192.49px;
        font-weight: 700;
      }

      .cls-5 {
        fill: #005841;
      }
    </style>
  </defs>
  <g id="Layer_1" data-name="Layer 1">
    <path class="cls-3" d="M278.75,51.3c.12-3.41-1.21-6.43-4.75-7.24-5.44-1.25-13.62-1.32-19.62-2.38-35.28-6.2-65.65-14.92-97.34-31.66-3.79-2-15.54-10.45-18.59-10C98.3,26.89,52.3,39.43,4.45,44.09c-2.57,1.1-4.08,3.33-3.8,6.2,1.77,41.89-2.14,85.4.01,127.1,3.73,72.46,64.59,121.71,124.38,152.63,7.06,3.65,11.79,8,20.07,4.73,11.11-4.39,30.94-17.53,41.51-24.49,48.39-31.84,88.54-71.51,92.08-132.92,2.38-41.23-1.8-84.58.05-126.04ZM258.18,175.95c-3.02,52.35-37.24,86.16-78.48,113.3-9.01,5.93-25.92,17.12-35.39,20.87-7.05,2.78-11.08-.92-17.1-4.03-50.96-26.36-102.83-68.33-106.01-130.09-1.83-35.54,1.49-72.63,0-108.34-.24-2.44,1.05-4.34,3.24-5.28,40.78-3.97,79.99-14.66,114.21-37.56,2.6-.38,12.61,6.82,15.84,8.52,27.01,14.27,52.9,21.7,82.96,26.99,5.13.9,12.1.96,16.73,2.02,3.02.69,4.15,3.27,4.05,6.18-1.57,35.33,1.98,72.28-.04,107.42Z"/>
  </g>
  <g id="Layer_4" data-name="Layer 4">
    <path class="cls-1" d="M144.79,229.29c2.89-.97,4.91-3.21,4.91-5.82,0-2.91-2.52-5.36-5.96-6.1-.22-.05-.44-.09-.67-.12-.49-.07-.99-.11-1.51-.11-.38,0-.75.02-1.12.07-.35.03-.69.08-1.02.16-3.46.72-6.01,3.18-6.01,6.1,0,2.51,1.87,4.67,4.58,5.69-17.71-3.7-125.77-70.78,3.74-183.62l.03,3.16v.64s0,0,0,0v-.64l.02-3.16c131.44,114.52,18.18,181.91,3.01,183.75Z"/>
    <path class="cls-1" d="M141.78,45.54l-.02,3.16-.03-3.16v-.04s.02.02.03.02c0,.01,0,.02.02.02Z"/>
    <path class="cls-1" d="M149.7,223.47c0,2.61-2.02,4.85-4.91,5.82-1.05.13-1.63-.06-1.63-.56l-.04-5.43-.05-6.05c.23.03.45.07.67.12,3.44.74,5.96,3.19,5.96,6.1Z"/>
    <path class="cls-1" d="M140.44,217.21l-.07,8.32-.02,3.2c0,.61-.85.75-2.36.43-2.71-1.02-4.58-3.18-4.58-5.69,0-2.92,2.55-5.38,6.01-6.1.33-.08.67-.13,1.02-.16Z"/>
    <path class="cls-1" d="M141.78,45.5v.04l-.02,3.16-.03-3.16s.02-.01.03-.02t.02-.02Z"/>
    <path class="cls-1" d="M143.74,217.37c-.2,2.29-.41,4.28-.62,5.93-.48,3.67-1,5.67-1.54,5.67-.42,0-.82-1.2-1.21-3.44-.33-1.96-.65-4.71-.95-8.16.33-.08.67-.13,1.02-.16.37-.05.74-.07,1.12-.07.52,0,1.02.04,1.51.11.23.03.45.07.67.12Z"/>
    <path class="cls-2" d="M149.7,223.47c0,2.61-2.02,4.85-4.91,5.82-.99.33-2.08.52-3.23.52-1.28,0-2.49-.23-3.57-.65-2.71-1.02-4.58-3.18-4.58-5.69,0-2.92,2.55-5.38,6.01-6.1.33-.08.67-.13,1.02-.16.37-.05.74-.07,1.12-.07.52,0,1.02.04,1.51.11.23.03.45.07.67.12,3.44.74,5.96,3.19,5.96,6.1Z"/>
  </g>
  <g id="Layer_6" data-name="Layer 6">
    <text class="cls-4" transform="translate(392.78 235.52)"><tspan x="0" y="0">CyberEco</tspan></text>
  </g>
  <g id="Layer_3" data-name="Layer 3">
    <rect class="cls-5" x="134.15" y="105.57" width="11.8" height="212.3" rx="5.9" ry="5.9"/>
    <rect class="cls-5" x="150.06" y="132.07" width="11.8" height="55.9" rx="5.9" ry="5.9" transform="translate(158.83 -63.41) rotate(45)"/>
    <rect class="cls-5" x="116.98" y="132.07" width="11.8" height="55.9" rx="5.9" ry="5.9" transform="translate(-77.16 133.76) rotate(-45)"/>
    <rect class="cls-5" x="108.15" y="246.77" width="11.8" height="61.07" rx="5.9" ry="5.9"/>
    <path class="cls-5" d="M78.28,211.8c1.8-.3,3.71.26,5.1,1.65l3.23,3.23,31.61,31.6c1.15,1.15,1.73,2.67,1.73,4.18s-.58,3.02-1.73,4.17c-2.31,2.3-6.04,2.3-8.35,0l-31.06-31.06-3.77-3.77c-1.13-1.13-1.71-2.62-1.73-4.1l4.97-5.9Z"/>
    <rect class="cls-5" x="162.95" y="247.26" width="11.8" height="61.07" rx="5.9" ry="5.9" transform="translate(337.7 555.58) rotate(-180)"/>
    <rect class="cls-5" x="180.36" y="204.99" width="11.8" height="61.07" rx="5.9" ry="5.9" transform="translate(151.44 533.77) rotate(-135)"/>
    <path class="cls-5" d="M218.34,187.49c-11.39,0-20.62,9.23-20.62,20.62,0,2.56.47,5.01,1.33,7.28,1.44,3.82,3.98,7.1,7.24,9.45,3.39,2.45,7.55,3.89,12.05,3.89,11.39,0,20.62-9.24,20.62-20.62s-9.23-20.62-20.62-20.62ZM218.4,219.11c-6.07,0-11-4.93-11-11s4.93-11,11-11,11,4.92,11,11-4.92,11-11,11Z"/>
    <path class="cls-5" d="M67.86,187.49c-11.39,0-20.62,9.23-20.62,20.62s9.23,20.62,20.62,20.62c4.02,0,7.78-1.15,10.95-3.16,3.39-2.12,6.12-5.22,7.8-8.89,1.2-2.61,1.87-5.51,1.87-8.57,0-11.39-9.24-20.62-20.62-20.62ZM67.92,219.11c-6.07,0-11-4.93-11-11s4.93-11,11-11,11,4.92,11,11c0,1.3-.22,2.54-.64,3.69-.89,2.52-2.68,4.61-4.97,5.9-1.59.9-3.43,1.41-5.39,1.41Z"/>
  </g>
</svg>